<mxfile host="app.diagrams.net" modified="2021-11-13T14:14:11.254Z" agent="5.0 (Windows NT 10.0; Win64; x64) AppleWebKit/537.36 (KHTML, like Gecko) Chrome/95.0.4638.69 Safari/537.36" etag="Jlxvjo4ajoeArpE5fsGS" version="15.7.3" type="github">
  <diagram id="WNs4n-IY1nlaHALRPyF3" name="Page-1">
    <mxGraphModel dx="3020" dy="2083" grid="1" gridSize="10" guides="1" tooltips="1" connect="1" arrows="1" fold="1" page="1" pageScale="1" pageWidth="850" pageHeight="1100" math="0" shadow="0">
      <root>
        <mxCell id="0" />
        <mxCell id="1" parent="0" />
        <mxCell id="5_O-Alobg1qK_7MijEC4-1" value="&lt;font style=&quot;font-size: 30px&quot;&gt;20&lt;/font&gt;" style="ellipse;whiteSpace=wrap;html=1;" vertex="1" parent="1">
          <mxGeometry x="320" y="-90" width="120" height="80" as="geometry" />
        </mxCell>
        <mxCell id="5_O-Alobg1qK_7MijEC4-3" value="" style="endArrow=classic;html=1;rounded=0;fontSize=30;exitX=0.975;exitY=0.8;exitDx=0;exitDy=0;exitPerimeter=0;" edge="1" parent="1" source="5_O-Alobg1qK_7MijEC4-1" target="5_O-Alobg1qK_7MijEC4-4">
          <mxGeometry width="50" height="50" relative="1" as="geometry">
            <mxPoint x="480" y="90" as="sourcePoint" />
            <mxPoint x="520" y="150" as="targetPoint" />
          </mxGeometry>
        </mxCell>
        <mxCell id="5_O-Alobg1qK_7MijEC4-4" value="40" style="ellipse;whiteSpace=wrap;html=1;fontSize=30;" vertex="1" parent="1">
          <mxGeometry x="560" y="20" width="120" height="80" as="geometry" />
        </mxCell>
        <mxCell id="5_O-Alobg1qK_7MijEC4-6" value="" style="endArrow=classic;html=1;rounded=0;fontSize=30;exitX=0;exitY=1;exitDx=0;exitDy=0;entryX=1;entryY=0;entryDx=0;entryDy=0;" edge="1" parent="1" source="5_O-Alobg1qK_7MijEC4-1" target="5_O-Alobg1qK_7MijEC4-11">
          <mxGeometry width="50" height="50" relative="1" as="geometry">
            <mxPoint x="400" y="220" as="sourcePoint" />
            <mxPoint x="450" y="170" as="targetPoint" />
            <Array as="points" />
          </mxGeometry>
        </mxCell>
        <mxCell id="5_O-Alobg1qK_7MijEC4-9" value="29" style="ellipse;whiteSpace=wrap;html=1;fontSize=30;" vertex="1" parent="1">
          <mxGeometry x="450" y="150" width="120" height="80" as="geometry" />
        </mxCell>
        <mxCell id="5_O-Alobg1qK_7MijEC4-10" value="" style="endArrow=classic;html=1;rounded=0;fontSize=30;exitX=0;exitY=1;exitDx=0;exitDy=0;" edge="1" parent="1" source="5_O-Alobg1qK_7MijEC4-4" target="5_O-Alobg1qK_7MijEC4-9">
          <mxGeometry width="50" height="50" relative="1" as="geometry">
            <mxPoint x="330" y="200" as="sourcePoint" />
            <mxPoint x="450" y="170" as="targetPoint" />
          </mxGeometry>
        </mxCell>
        <mxCell id="5_O-Alobg1qK_7MijEC4-11" value="10" style="ellipse;whiteSpace=wrap;html=1;fontSize=30;" vertex="1" parent="1">
          <mxGeometry x="30" y="20" width="120" height="80" as="geometry" />
        </mxCell>
        <mxCell id="5_O-Alobg1qK_7MijEC4-13" value="5" style="ellipse;whiteSpace=wrap;html=1;fontSize=30;" vertex="1" parent="1">
          <mxGeometry x="-140" y="140" width="120" height="80" as="geometry" />
        </mxCell>
        <mxCell id="5_O-Alobg1qK_7MijEC4-14" value="" style="endArrow=classic;html=1;rounded=0;fontSize=30;exitX=0;exitY=1;exitDx=0;exitDy=0;entryX=0.5;entryY=0;entryDx=0;entryDy=0;" edge="1" parent="1" source="5_O-Alobg1qK_7MijEC4-11" target="5_O-Alobg1qK_7MijEC4-13">
          <mxGeometry width="50" height="50" relative="1" as="geometry">
            <mxPoint x="400" y="320" as="sourcePoint" />
            <mxPoint x="450" y="270" as="targetPoint" />
          </mxGeometry>
        </mxCell>
        <mxCell id="5_O-Alobg1qK_7MijEC4-16" value="13" style="ellipse;whiteSpace=wrap;html=1;fontSize=30;" vertex="1" parent="1">
          <mxGeometry x="160" y="160" width="120" height="80" as="geometry" />
        </mxCell>
        <mxCell id="5_O-Alobg1qK_7MijEC4-17" value="" style="endArrow=classic;html=1;rounded=0;fontSize=30;exitX=1;exitY=1;exitDx=0;exitDy=0;entryX=0.5;entryY=0;entryDx=0;entryDy=0;" edge="1" parent="1" source="5_O-Alobg1qK_7MijEC4-11" target="5_O-Alobg1qK_7MijEC4-16">
          <mxGeometry width="50" height="50" relative="1" as="geometry">
            <mxPoint x="360" y="350" as="sourcePoint" />
            <mxPoint x="410" y="300" as="targetPoint" />
          </mxGeometry>
        </mxCell>
        <mxCell id="5_O-Alobg1qK_7MijEC4-20" value="45" style="ellipse;whiteSpace=wrap;html=1;fontSize=30;" vertex="1" parent="1">
          <mxGeometry x="710" y="150" width="120" height="80" as="geometry" />
        </mxCell>
        <mxCell id="5_O-Alobg1qK_7MijEC4-22" value="19" style="ellipse;whiteSpace=wrap;html=1;fontSize=30;fillColor=#fa6800;fontColor=#000000;strokeColor=#C73500;" vertex="1" parent="1">
          <mxGeometry x="240" y="290" width="120" height="80" as="geometry" />
        </mxCell>
        <mxCell id="5_O-Alobg1qK_7MijEC4-25" value="23" style="ellipse;whiteSpace=wrap;html=1;fontSize=30;" vertex="1" parent="1">
          <mxGeometry x="380" y="300" width="120" height="80" as="geometry" />
        </mxCell>
        <mxCell id="5_O-Alobg1qK_7MijEC4-27" value="" style="endArrow=classic;html=1;rounded=0;fontSize=30;exitX=0;exitY=1;exitDx=0;exitDy=0;entryX=0.5;entryY=0;entryDx=0;entryDy=0;" edge="1" parent="1" source="5_O-Alobg1qK_7MijEC4-9" target="5_O-Alobg1qK_7MijEC4-25">
          <mxGeometry width="50" height="50" relative="1" as="geometry">
            <mxPoint x="320" y="390" as="sourcePoint" />
            <mxPoint x="430" y="280" as="targetPoint" />
          </mxGeometry>
        </mxCell>
        <mxCell id="5_O-Alobg1qK_7MijEC4-28" value="39" style="ellipse;whiteSpace=wrap;html=1;fontSize=30;" vertex="1" parent="1">
          <mxGeometry x="560" y="300" width="120" height="80" as="geometry" />
        </mxCell>
        <mxCell id="5_O-Alobg1qK_7MijEC4-32" value="45" style="ellipse;whiteSpace=wrap;html=1;fontSize=30;" vertex="1" parent="1">
          <mxGeometry x="820" y="300" width="120" height="80" as="geometry" />
        </mxCell>
        <mxCell id="5_O-Alobg1qK_7MijEC4-33" value="" style="endArrow=classic;html=1;rounded=0;fontSize=30;exitX=1;exitY=1;exitDx=0;exitDy=0;entryX=0.5;entryY=0;entryDx=0;entryDy=0;" edge="1" parent="1" source="5_O-Alobg1qK_7MijEC4-20" target="5_O-Alobg1qK_7MijEC4-32">
          <mxGeometry width="50" height="50" relative="1" as="geometry">
            <mxPoint x="320" y="390" as="sourcePoint" />
            <mxPoint x="370" y="340" as="targetPoint" />
          </mxGeometry>
        </mxCell>
        <mxCell id="5_O-Alobg1qK_7MijEC4-43" value="" style="endArrow=classic;html=1;rounded=0;fontSize=30;entryX=0.5;entryY=0;entryDx=0;entryDy=0;exitX=1;exitY=1;exitDx=0;exitDy=0;" edge="1" parent="1" source="5_O-Alobg1qK_7MijEC4-9" target="5_O-Alobg1qK_7MijEC4-28">
          <mxGeometry width="50" height="50" relative="1" as="geometry">
            <mxPoint x="610" y="530" as="sourcePoint" />
            <mxPoint x="660" y="480" as="targetPoint" />
          </mxGeometry>
        </mxCell>
        <mxCell id="5_O-Alobg1qK_7MijEC4-44" value="" style="endArrow=classic;html=1;rounded=0;fontSize=30;exitX=1;exitY=1;exitDx=0;exitDy=0;entryX=0;entryY=0;entryDx=0;entryDy=0;" edge="1" parent="1" source="5_O-Alobg1qK_7MijEC4-4" target="5_O-Alobg1qK_7MijEC4-20">
          <mxGeometry width="50" height="50" relative="1" as="geometry">
            <mxPoint x="320" y="440" as="sourcePoint" />
            <mxPoint x="370" y="390" as="targetPoint" />
          </mxGeometry>
        </mxCell>
      </root>
    </mxGraphModel>
  </diagram>
</mxfile>
